<svg id="Layer_1" data-name="Layer 1" xmlns="http://www.w3.org/2000/svg" viewBox="0 0 639.41 772.53"><path d="M1078.2,379.11c4.86,4.92,11.24,6.49,17.66,7.92,4.82,1.07,8.72,3.11,11.48,7.63,2.58,4.21,7.71,6.58,10.37,10.38,5.27,7.49,12.81,7.17,20,7.73,4,.32,7.78-2.78,12.11-3,3.89-.24,7.29-2.08,10.61-4.34a36.13,36.13,0,0,1,24.19-6.17c11.77,1.18,21.39-1.64,29-11.14,3.21-4,7.52-6.74,13.29-5.1,1.17.33,2.32.6,3,1.56,3.83,5.58,9.81,7.56,15.76,9.67,1.93.68,2.22,2.81,3,4.36,1.06,2.26,2.1,2.74,4.45,1.59,6-2.91,8.34-1.74,9.35,4.73a68.64,68.64,0,0,1,.48,10.45c0,7.13,2.45,12.67,7.54,18.16,7.34,7.9,10,18,8.58,29.11-1,7.7-4.57,14-8.12,20.6-3.65,6.75-6.54,13.82-11.44,20-10.46,13.1-24.15,19.21-40.44,18.66-18.69-.63-32.82-9.38-41.22-26.53-1.72-3.53-2.23-7.39-2.7-11.16-.34-2.65-1.21-2.64-3.08-1.78a11.35,11.35,0,0,0-4.65,4.26c-2.89,4.33-6.44,7.43-12.3,6.43-6.16-1.05-11.57,1-16.54,4.62A215.73,215.73,0,0,1,1114,513.19c-3.86,2.08-6.82,5.06-9.87,8.1-6.53,6.5-12.6,13.45-19.08,20-15.08,15.12-25,33.47-34.07,52.35-6.91,14.38-14,28.68-19,43.94-5.42,16.55-8.16,33.84-14.16,50.18-7.18,19.55-14.46,39.06-23.14,58C974.9,789,953.18,831.22,931.75,873.61c-.5,1-.66,2.51-1.9,2.69-1.9.29-1.71-1.72-2.26-2.76-18.93-35.57-37.78-71.2-55.41-107.44-10.3-21.17-20.21-42.56-28.38-64.7a526.38,526.38,0,0,1-16.32-53.95c-2.88-11.46-4.11-23.31-5.48-35.1a284,284,0,0,1-1.89-43.41c.55-14.41,3.63-28.47,7-42.47,3-12.25,7.64-23.91,12.15-35.57,2.58-6.69,6.32-13,9.19-19.71,4.39-10.23,7.41-20.94,11.51-31.27a14.93,14.93,0,0,1,2.27-4.31c8.45,13.16,11.27,28,11.52,43.17.46,28.45.25,56.92.31,85.37-.07,2.33-.12,4.65-.23,7-1.1,24.21,5.77,45,26.15,59.72,16.48,11.94,37,12.28,53.92,1.08,15.7-10.42,23.75-26.06,27.26-44.25.81-1.62,1.94-3.16,2.37-4.87,3.56-14.14,7.34-28.24,10.35-42.49,5.14-24.31,8.49-48.92,11.17-73.62.62-5.71.55-11.86,3.47-16.95,6.7-11.68,13.4-23.45,24-32.31,2-1.72,2.37-3.45-.25-5.72-9.55-8.32-17.84-17.83-26-27.57-9-10.84-16.67-22.92-27.24-32.42a91.05,91.05,0,0,1-14.32-16,277.12,277.12,0,0,1-32.16-61c-1.4-4.2-2.7-8.43-4.19-12.59-4.58-12.78-7.12-26.41-15.95-37.4-1-1.19-1-3.06-1.53-4.62,3.58-3.35,6.43-6.93,6.27-12.34-.18-5.71,2-7.19,7.3-5.54,2.41.75,3.35,3,4,5.18,1.06,3.54,3.07,4.48,6.32,2.76-1.58,12.13,3.2,21.33,10.1,31.51a498.27,498.27,0,0,0,45.05,57c1.67,1.82,2.61,4.27,4.88,5.55,1.61,2.69,3.12,5.44,4.85,8,4.64,7,8.12,14.83,14.13,20.92C1032.64,352.2,1053.82,367.89,1078.2,379.11Z" transform="translate(-639.98 -153.42)"/><path d="M874.1,564.15c-.06-28.45.15-56.92-.31-85.37-.25-15.2-3.07-30-11.52-43.17,1-4.83,3.48-9.15,4.92-13.78,3.74-12,7.31-24.09,9.16-36.7,1.27-8.64,1.57-17.37,3-26,.21-1.29,1.19-4-1.3-4-7.16,0-12.12-5.1-18.28-7.4-10.54-3.94-21.44-7-31.61-11.94-10.41-5.07-21.41-9-30.8-16-7.14-5.27-13.23-11.63-16.06-20.3-1.21-3.69.54-7.48,2.06-10.66,3.74-7.79,8.21-14.85,15.05-20.92,7.38-6.54,12.93-15.31,18.57-23.59,3.57-5.24,9.4-6.74,13.87-10.4,10.27-8.42,22.16-14.48,32.93-22.09,4.9-3.46,10.08-5,15.14-7.39,7.39-3.57,11.44-9.75,12.46-18.25.78-6.52,2-13.08,5.13-19.13,1.57-3,3.86-5,6.8-4.72,5.8.62,8.57-3.37,11.86-6.64,1.29-1.28,2-2.84,4.35-2.12,2.06.63,3.3,2,3.26,3.76-.07,3.1,1.4,4,4.05,5,4.89,1.88,9.7,10.74,9.29,16,0,.32-.22.72-.1.95,5.35,9.83,1.89,19.34-1,28.87a9.92,9.92,0,0,0-.2,2c-3.25,1.72-5.26.78-6.32-2.76-.65-2.17-1.59-4.43-4-5.18-5.34-1.65-7.48-.17-7.3,5.54.16,5.41-2.69,9-6.27,12.34-1.61.42-4.22,1.13-4,2.36.88,5-3.49,6.59-5.56,9.65-10.5,15.5-24.79,27.65-36.93,41.7a19.76,19.76,0,0,0-5,9.38c8.9-.18,17.55,1.45,26.25-.13a8.05,8.05,0,0,1,5.37.37c2.61,1.39,5.44,1.16,8.24,1.43,5.42.53,10.53-2.1,15.68-1.69,3.27.25,5-.78,7.33-2.38,3.25-2.28,5.7-6,10.29-6.08a277.12,277.12,0,0,0,32.16,61,91.05,91.05,0,0,0,14.32,16c10.57,9.5,18.2,21.58,27.24,32.42,8.13,9.74,16.42,19.25,26,27.57,2.62,2.27,2.3,4,.25,5.72-10.59,8.86-17.29,20.63-24,32.31-2.92,5.09-2.85,11.24-3.47,16.95-2.68,24.7-6,49.31-11.17,73.62-3,14.25-6.79,28.35-10.35,42.49-.43,1.71-1.56,3.25-2.37,4.86a69.24,69.24,0,0,0-8.39-44.57c-19.87-35.52-64-37.81-87.5-4.66C879.76,546.27,876.86,555.16,874.1,564.15Z" transform="translate(-639.98 -153.42)"/><path d="M925.7,925.91c-17.53.31-37.18-1.14-56.82-1-8.26,0-16.41-1-24.6-1.35-6.2-.23-12.66,0-19-1.51-5.16-1.19-10.71-.59-16-1.16-7.38-.79-14.69-2.19-22.07-2.85-5.82-.52-11.53-1.65-17.3-2.29-9.35-1-18.62-2.57-27.83-4.38C728,908.56,713.79,906,700,901.68c-17.31-5.37-34.9-10.19-49.62-21.27-8.37-6.31-12.54-12.53-9.25-23.41,1.59-5.25,5.57-8.78,9.84-11.86,11.81-8.55,25.32-13.54,39.07-17.78,27.19-8.37,55.08-13.54,83.24-17.46,20.67-2.88,41.44-4.73,62.21-6.62A87.45,87.45,0,0,1,846,803c3.86.12,7,1.78,7,6.07,0,4-2.68,6.46-6.51,6.83-12.1,1.17-24.26,1.82-36.34,3.11-43.71,4.66-87.22,10.43-128.76,25.87-8.12,3-16,6.59-22.82,12.06-6.4,5.13-6.4,7,.14,12.14,9,7.07,19.61,11.15,30.31,14.79,28.3,9.63,57.58,14.92,87.09,19,67,9.34,134.43,10.93,201.94,8.89,25.51-.78,51-2.73,76.4-5.61,32.42-3.67,64.62-8.37,96.13-17,15.44-4.24,30.6-9.23,44.22-18,1.73-1.12,3.34-2.43,5.12-3.51,4-2.4,3.36-7.05-.62-9.82-13.12-9.17-27.77-14.66-43-19.15A446.29,446.29,0,0,0,1110.42,828c-11.77-2.16-23.68-3.81-35.6-5.33-9.88-1.26-19.83-2.38-29.72-3.52-5.27-.61-10.8-.9-16.06-1.51-6.78-.79-13.71.27-20.39-1.7-4.08-1.21-5.31-3.64-4.65-7.64s3.62-5.32,7-5.24c7.13.16,14.27.51,21.37,1.14,8.38.73,16.71,2,25.09,2.75,16.93,1.55,33.71,4.09,50.47,7,22.32,3.81,44.38,8.62,65.77,16.13,12.53,4.4,25,9.19,35,18.31,13.63,12.35,9,22.94-3.5,32.25-11.9,8.88-25.77,14.05-39.89,18.28a508.28,508.28,0,0,1-69.44,15.31c-20.22,3.07-40.47,5.6-60.81,7.33C999.44,924.51,963.67,926.12,925.7,925.91Z" transform="translate(-639.98 -153.42)"/><path d="M1078.2,379.11c-24.38-11.22-45.56-26.91-64.36-45.94-6-6.09-9.49-13.9-14.13-20.92-1.73-2.6-3.24-5.35-4.85-8,4.44-.3,7.6-3.11,11.44-5.73-7.84-4.48-4.12-11.46-2.73-16.69,1.52-5.73,1.82-11.5,2.23-17.12.76-10.38,4.84-19.25,10.2-27.59a47.87,47.87,0,0,1,13.91-14.16c7.55-4.94,16.09-6.55,24.82-6.29,12.76.37,25.54,2.26,36.37,9.4,7.37,4.86,15.88,7.44,23,12.44,10,7.11,16.85,18.31,11.84,32.2-1.4,3.9-3.65,7.13-8.16,7.65-2.38.27-2.67,1.42-2.9,3.55-.46,4.43-.55,8.92-1.82,13.25-.58,1.95-1.2,3.91-2.8,5.1-4.22,3.15-4.17,7-2.46,11.39a60.16,60.16,0,0,1,2.2,7.49c1.18,4.79-.46,7.28-5.26,6.77-4.46-.47-5.43,2-5.6,5.22s-2.27,5.19-3.69,7.63c-2.26,3.86-6.27,6.38-7.66,10.92-2.37,7.77-5.68,9.07-13.64,6.63-2.53-.78-4.79-2.64-8.22-2,1,1.84,1.54,4.23,2.92,5,7.3,4,5.69,12.36,9.43,18C1078.51,377.67,1078.22,378.48,1078.2,379.11Z" transform="translate(-639.98 -153.42)"/></svg>